<svg width="200" height="200" version="1.1" xmlns="http://www.w3.org/2000/svg" desc="Created with imagetracer.js version 1.2.6" ><path fill="rgb(225,225,225)" stroke="rgb(225,225,225)" stroke-width="1" opacity="1" d="M 120.5 31 L 119.5 33 L 120.5 31 Z " /><path fill="rgb(225,225,225)" stroke="rgb(225,225,225)" stroke-width="1" opacity="1" d="M 117.5 33 L 116.5 35 L 117.5 33 Z " /><path fill="rgb(225,225,225)" stroke="rgb(225,225,225)" stroke-width="1" opacity="1" d="M 113.5 36 L 104.5 46 L 113.5 36 Z " /><path fill="rgb(225,225,225)" stroke="rgb(225,225,225)" stroke-width="1" opacity="1" d="M 134 115 L 173.5 126 L 175 127.5 Q 169.4 151.4 153.5 165 Q 145.8 171.8 134.5 175 Q 117.6 169.9 108 157.5 L 99 144.5 Q 117.4 145.4 125 135.5 L 132 123.5 L 134 115 Z " /><path fill="rgb(209,208,208)" stroke="rgb(209,208,208)" stroke-width="1" opacity="1" d="M 100.5 20 L 123.5 22 L 133 25.5 Q 114.7 31.7 104 45.5 L 98 56 Q 87.4 58.2 81 65.5 Q 70.8 78.1 73 102 L 60.5 100 L 38.5 100 L 37.5 101 L 25 102 Q 26.9 96.4 26 86.5 L 31 67.5 Q 37.9 49.4 51.5 38 Q 60.8 29.8 73.5 25 L 89.5 21 L 99.5 21 L 100.5 20 Z " /><path fill="rgb(209,208,208)" stroke="rgb(209,208,208)" stroke-width="1" opacity="1" d="M 124.5 135 L 122.5 138 L 124.5 135 Z " /><path fill="rgb(209,208,208)" stroke="rgb(209,208,208)" stroke-width="1" opacity="1" d="M 100.5 147 L 101.5 149 L 100.5 147 Z " /><path fill="rgb(209,208,208)" stroke="rgb(209,208,208)" stroke-width="1" opacity="1" d="M 102.5 150 L 103.5 152 L 102.5 150 Z " /><path fill="rgb(209,208,208)" stroke="rgb(209,208,208)" stroke-width="1" opacity="1" d="M 105.5 154 L 107.5 157 L 105.5 154 Z " /><path fill="rgb(209,208,208)" stroke="rgb(209,208,208)" stroke-width="1" opacity="1" d="M 114.5 163 L 116.5 166 L 114.5 163 Z " /><path fill="rgb(209,208,208)" stroke="rgb(209,208,208)" stroke-width="1" opacity="1" d="M 119.5 167 L 120.5 169 L 119.5 167 Z " /><path fill="rgb(254,254,254)" stroke="rgb(254,254,254)" stroke-width="1" opacity="1" d="M 134.5 25 Q 151.2 30.8 161 43.5 Q 169.5 53.5 174 67.5 L 132 77 L 130 70.5 L 125 63 L 117.5 58 L 103.5 55 L 98.5 56 L 99 54.5 Q 104.8 42.3 115.5 35 L 134.5 25 Z " /><path fill="rgb(211,149,148)" stroke="rgb(211,149,148)" stroke-width="1" opacity="1" d="M 92.5 20 L 97 20.5 L 92.5 21 L 92.5 20 Z " /><path fill="rgb(211,149,148)" stroke="rgb(211,149,148)" stroke-width="1" opacity="1" d="M 109.5 20 L 114 20.5 L 109.5 21 L 109.5 20 Z " /><path fill="rgb(211,149,148)" stroke="rgb(211,149,148)" stroke-width="1" opacity="1" d="M 63.5 29 L 62.5 31 L 63.5 29 Z " /><path fill="rgb(211,149,148)" stroke="rgb(211,149,148)" stroke-width="1" opacity="1" d="M 145.5 29 L 146.5 31 L 145.5 29 Z " /><path fill="rgb(211,149,148)" stroke="rgb(211,149,148)" stroke-width="1" opacity="1" d="M 148.5 31 L 149.5 33 L 148.5 31 Z " /><path fill="rgb(211,149,148)" stroke="rgb(211,149,148)" stroke-width="1" opacity="1" d="M 58.5 32 L 57.5 34 L 58.5 32 Z " /><path fill="rgb(211,149,148)" stroke="rgb(211,149,148)" stroke-width="1" opacity="1" d="M 152.5 34 L 160.5 43 L 152.5 34 Z " /><path fill="rgb(211,149,148)" stroke="rgb(211,149,148)" stroke-width="1" opacity="1" d="M 54.5 35 L 53.5 37 L 54.5 35 Z " /><path fill="rgb(211,149,148)" stroke="rgb(211,149,148)" stroke-width="1" opacity="1" d="M 49.5 39 L 45.5 44 L 49.5 39 Z " /><path fill="rgb(211,149,148)" stroke="rgb(211,149,148)" stroke-width="1" opacity="1" d="M 41.5 48 L 40.5 50 L 41.5 48 Z " /><path fill="rgb(211,149,148)" stroke="rgb(211,149,148)" stroke-width="1" opacity="1" d="M 39.5 51 L 38.5 53 L 39.5 51 Z " /><path fill="rgb(211,149,148)" stroke="rgb(211,149,148)" stroke-width="1" opacity="1" d="M 37.5 54 L 36.5 56 L 37.5 54 Z " /><path fill="rgb(211,149,148)" stroke="rgb(211,149,148)" stroke-width="1" opacity="1" d="M 97.5 56 L 100 56.5 L 97.5 57 L 97.5 56 Z " /><path fill="rgb(211,149,148)" stroke="rgb(211,149,148)" stroke-width="1" opacity="1" d="M 87.5 60 L 86.5 62 L 87.5 60 Z " /><path fill="rgb(211,149,148)" stroke="rgb(211,149,148)" stroke-width="1" opacity="1" d="M 121.5 61 L 122.5 63 L 121.5 61 Z " /><path fill="rgb(211,149,148)" stroke="rgb(211,149,148)" stroke-width="1" opacity="1" d="M 126.5 66 L 127.5 68 L 126.5 66 Z " /><path fill="rgb(211,149,148)" stroke="rgb(211,149,148)" stroke-width="1" opacity="1" d="M 80.5 67 L 79.5 69 L 80.5 67 Z " /><path fill="rgb(211,149,148)" stroke="rgb(211,149,148)" stroke-width="1" opacity="1" d="M 131.5 76 L 132.5 78 L 131.5 76 Z " /><path fill="rgb(211,149,148)" stroke="rgb(211,149,148)" stroke-width="1" opacity="1" d="M 26.5 83 L 27 85.5 L 26 85.5 L 26.5 83 Z " /><path fill="rgb(211,149,148)" stroke="rgb(211,149,148)" stroke-width="1" opacity="1" d="M 73.5 86 L 74 89.5 L 73 89.5 L 73.5 86 Z " /><path fill="rgb(211,149,148)" stroke="rgb(211,149,148)" stroke-width="1" opacity="1" d="M 25.5 90 L 26 94.5 L 25 94.5 L 25.5 90 Z " /><path fill="rgb(211,149,148)" stroke="rgb(211,149,148)" stroke-width="1" opacity="1" d="M 25.5 108 L 26 113.5 L 25 113.5 L 25.5 108 Z " /><path fill="rgb(211,149,148)" stroke="rgb(211,149,148)" stroke-width="1" opacity="1" d="M 73.5 110 L 74 114.5 L 73 114.5 L 73.5 110 Z " /><path fill="rgb(211,149,148)" stroke="rgb(211,149,148)" stroke-width="1" opacity="1" d="M 26.5 118 L 27 120.5 L 26 120.5 L 26.5 118 Z " /><path fill="rgb(211,149,148)" stroke="rgb(211,149,148)" stroke-width="1" opacity="1" d="M 74.5 118 L 75 120.5 L 74 120.5 L 74.5 118 Z " /><path fill="rgb(211,149,148)" stroke="rgb(211,149,148)" stroke-width="1" opacity="1" d="M 128.5 129 L 127.5 131 L 128.5 129 Z " /><path fill="rgb(211,149,148)" stroke="rgb(211,149,148)" stroke-width="1" opacity="1" d="M 126.5 132 L 125.5 134 L 126.5 132 Z " /><path fill="rgb(211,149,148)" stroke="rgb(211,149,148)" stroke-width="1" opacity="1" d="M 81.5 135 L 84.5 139 L 81.5 135 Z " /><path fill="rgb(211,149,148)" stroke="rgb(211,149,148)" stroke-width="1" opacity="1" d="M 86.5 139 L 87.5 141 L 86.5 139 Z " /><path fill="rgb(211,149,148)" stroke="rgb(211,149,148)" stroke-width="1" opacity="1" d="M 95.5 143 L 98 143.5 L 95.5 144 L 95.5 143 Z " /><path fill="rgb(211,149,148)" stroke="rgb(211,149,148)" stroke-width="1" opacity="1" d="M 108.5 143 L 111 143.5 L 108.5 144 L 108.5 143 Z " /><path fill="rgb(211,149,148)" stroke="rgb(211,149,148)" stroke-width="1" opacity="1" d="M 37.5 148 L 38.5 150 L 37.5 148 Z " /><path fill="rgb(211,149,148)" stroke="rgb(211,149,148)" stroke-width="1" opacity="1" d="M 39.5 151 L 41.5 154 L 39.5 151 Z " /><path fill="rgb(211,149,148)" stroke="rgb(211,149,148)" stroke-width="1" opacity="1" d="M 165.5 151 L 164.5 153 L 165.5 151 Z " /><path fill="rgb(211,149,148)" stroke="rgb(211,149,148)" stroke-width="1" opacity="1" d="M 163.5 154 L 162.5 156 L 163.5 154 Z " /><path fill="rgb(211,149,148)" stroke="rgb(211,149,148)" stroke-width="1" opacity="1" d="M 43.5 156 L 47.5 161 L 43.5 156 Z " /><path fill="rgb(211,149,148)" stroke="rgb(211,149,148)" stroke-width="1" opacity="1" d="M 158.5 160 L 155.5 164 L 158.5 160 Z " /><path fill="rgb(211,149,148)" stroke="rgb(211,149,148)" stroke-width="1" opacity="1" d="M 52.5 164 L 53.5 166 L 52.5 164 Z " /><path fill="rgb(211,149,148)" stroke="rgb(211,149,148)" stroke-width="1" opacity="1" d="M 55.5 166 L 56.5 168 L 55.5 166 Z " /><path fill="rgb(211,149,148)" stroke="rgb(211,149,148)" stroke-width="1" opacity="1" d="M 58.5 168 L 59.5 170 L 58.5 168 Z " /><path fill="rgb(211,149,148)" stroke="rgb(211,149,148)" stroke-width="1" opacity="1" d="M 119.5 178 L 122 178.5 L 119.5 179 L 119.5 178 Z " /><path fill="rgb(211,149,148)" stroke="rgb(211,149,148)" stroke-width="1" opacity="1" d="M 91.5 179 L 97 179.5 L 91.5 180 L 91.5 179 Z " /><path fill="rgb(211,149,148)" stroke="rgb(211,149,148)" stroke-width="1" opacity="1" d="M 109.5 179 L 115 179.5 L 109.5 180 L 109.5 179 Z " /><path fill="rgb(84,13,13)" stroke="rgb(84,13,13)" stroke-width="1" opacity="0.19215686274509805" d="M 0 0 L 11 0.5 L 2 7.5 L 0.5 11 L 0 0 Z " /><path fill="rgb(84,13,13)" stroke="rgb(84,13,13)" stroke-width="1" opacity="0.19215686274509805" d="M 189.5 0 L 200 0 L 200 10.5 L 199 10.5 Q 197.6 4.4 192.5 2 Q 188.7 1.7 189.5 0 Z " /><path fill="rgb(84,13,13)" stroke="rgb(84,13,13)" stroke-width="1" opacity="0.19215686274509805" d="M 0.5 189 L 7.5 198 L 11 199.5 L 0 200 L 0.5 189 Z " /><path fill="rgb(84,13,13)" stroke="rgb(84,13,13)" stroke-width="1" opacity="0.19215686274509805" d="M 199.5 189 L 200 200 L 189 199.5 L 198 192.5 L 199.5 189 Z " /><path fill="rgb(221,37,35)" stroke="rgb(221,37,35)" stroke-width="1" opacity="1" d="M 11.5 0 L 188.5 0 L 198 7.5 L 200 11.5 L 200 188.5 L 192.5 198 L 188.5 200 L 11.5 200 L 2 192.5 L 0 188.5 L 0 11.5 L 7.5 2 L 11.5 0 Z M 93 20 L 82 22 L 68 27 L 50 39 Q 38 49 32 64 L 28 75 L 25 91 L 25 114 L 28 129 Q 33 145 43 157 Q 52 167 66 173 L 77 177 L 92 180 L 115 180 L 132 177 Q 146 173 156 164 Q 171 150 176 126 L 133 114 L 132 122 L 125 135 L 118 141 L 108 144 Q 93 145 86 139 L 77 129 L 73 110 L 74 83 Q 76 73 81 67 Q 88 58 101 56 Q 116 55 124 63 L 130 72 L 133 78 L 174 69 L 171 59 L 161 43 Q 151 30 134 24 L 114 20 L 93 20 Z " /><path fill="rgb(186,186,186)" stroke="rgb(186,186,186)" stroke-width="1" opacity="1" d="M 97.5 20 L 100 20.5 L 97.5 21 L 97.5 20 Z " /><path fill="rgb(186,186,186)" stroke="rgb(186,186,186)" stroke-width="1" opacity="1" d="M 43.5 46 L 42.5 48 L 43.5 46 Z " /><path fill="rgb(186,186,186)" stroke="rgb(186,186,186)" stroke-width="1" opacity="1" d="M 84.5 62 L 81.5 66 L 84.5 62 Z " /><path fill="rgb(186,186,186)" stroke="rgb(186,186,186)" stroke-width="1" opacity="1" d="M 25.5 95 L 26 97.5 L 25 97.5 L 25.5 95 Z " /><path fill="rgb(186,186,186)" stroke="rgb(186,186,186)" stroke-width="1" opacity="1" d="M 38.5 100 L 60.5 100 L 73 102 L 74 120.5 L 77 129.5 L 84.5 139 Q 90.1 143.6 99 144 Q 104.8 157.4 116.5 166 Q 123.8 172.2 134 175.5 L 118.5 179 L 97.5 180 L 96.5 179 L 82.5 178 L 66.5 173 Q 51.6 166.4 42 154.5 Q 33.4 144.6 29 130.5 L 26 117.5 L 25 102 L 37.5 101 L 38.5 100 Z " /></svg>